<?xml version="1.0" standalone="no"?><!DOCTYPE svg PUBLIC "-//W3C//DTD SVG 1.1//EN" "http://www.w3.org/Graphics/SVG/1.1/DTD/svg11.dtd"><svg class="icon" width="200px" height="200.00px" viewBox="0 0 1024 1024" version="1.1" xmlns="http://www.w3.org/2000/svg"><path d="M998.4 369.066667 797.866667 93.866667c-4.266667-6.4-12.8-10.666667-19.2-10.666667L243.2 83.2c0 0-14.933333 2.133333-23.466667 17.066667C194.133333 142.933333 32 384 32 384L21.333333 401.066667l12.8 14.933333L469.333333 923.733333c4.266667 4.266667 6.4 6.4 10.666667 8.533333 6.4 4.266667 32 10.666667 46.933333 0 4.266667-2.133333 6.4-6.4 10.666667-8.533333l409.6-420.266667c10.666667-8.533333 10.666667-25.6 0-34.133333-8.533333-10.666667-23.466667-10.666667-32 0L561.066667 834.133333l153.6-422.4 0 0 251.733333 0c2.133333 0 19.2 0 23.466667-4.266667l2.133333-2.133333C1004.8 398.933333 1006.933333 384 998.4 369.066667zM782.933333 132.266667l-96 226.133333L341.333333 358.4l-85.333333-226.133333L782.933333 132.266667zM221.866667 181.333333l72.533333 179.2-192 0L221.866667 181.333333zM91.733333 407.466667l215.466667 0 138.666667 416L91.733333 407.466667zM503.466667 851.2l-147.2-443.733333 307.2 0L503.466667 851.2zM736 360.533333 810.666667 194.133333l119.466667 168.533333L736 362.666667z" /></svg>